<svg version="1.1" id="Layer_1" xmlns="http://www.w3.org/2000/svg" xmlns:xlink="http://www.w3.org/1999/xlink" x="0px" y="0px"
	 width="100%" viewBox="0 0 500 500" enable-background="new 0 0 500 500" xml:space="preserve">
<path fill="#F6F5F2" opacity="1.000000" stroke="none" 
	d="
M278.000000,501.000000 
	C185.333359,501.000000 93.166710,501.000000 1.000049,501.000000 
	C1.000033,334.333405 1.000033,167.666794 1.000016,1.000139 
	C167.666565,1.000093 334.333130,1.000093 500.999756,1.000046 
	C500.999847,167.666519 500.999847,334.333038 500.999939,500.999786 
	C426.833344,501.000000 352.666656,501.000000 278.000000,501.000000 
M324.576752,74.917351 
	C291.912079,60.846664 257.691132,57.365788 222.916428,62.361599 
	C173.298233,69.489861 132.663223,93.474052 101.478645,132.625214 
	C68.057762,174.583954 55.810574,222.826218 62.016430,275.791443 
	C66.525208,314.272552 81.910866,348.319427 107.846786,376.915985 
	C155.033264,428.943054 214.128754,449.529480 283.344666,438.756622 
	C333.521820,430.946960 373.615021,405.123291 404.018951,364.662933 
	C436.762756,321.088715 447.205505,271.745056 438.807159,218.454376 
	C432.847778,180.639893 415.943573,147.839783 389.538239,119.991661 
	C371.183899,100.634430 349.858917,85.602074 324.576752,74.917351 
z"/>
<path fill="#92CCB0" opacity="1.000000" stroke="none" 
	d="
M324.933380,75.053192 
	C349.858917,85.602074 371.183899,100.634430 389.538239,119.991661 
	C415.943573,147.839783 432.847778,180.639893 438.807159,218.454376 
	C447.205505,271.745056 436.762756,321.088715 404.018951,364.662933 
	C373.615021,405.123291 333.521820,430.946960 283.344666,438.756622 
	C214.128754,449.529480 155.033264,428.943054 107.846786,376.915985 
	C81.910866,348.319427 66.525208,314.272552 62.016430,275.791443 
	C55.810574,222.826218 68.057762,174.583954 101.478645,132.625214 
	C132.663223,93.474052 173.298233,69.489861 222.916428,62.361599 
	C257.691132,57.365788 291.912079,60.846664 324.933380,75.053192 
M364.879761,394.407532 
	C416.323273,351.312775 439.604950,296.267303 432.671631,229.542160 
	C428.142273,185.952057 409.000122,148.757065 377.126770,118.485100 
	C344.867889,87.846985 306.300110,71.080261 261.972046,68.253853 
	C226.206970,65.973427 192.453568,73.816696 161.205795,91.416214 
	C95.195740,128.594727 59.271328,201.528671 69.907875,276.821716 
	C76.587540,324.105194 98.760918,362.993286 135.683701,393.046112 
	C178.393417,427.809082 227.648041,439.970032 281.702423,431.566437 
	C312.304901,426.808838 339.866791,414.043518 364.879761,394.407532 
z"/>
<path fill="#116B7B" opacity="1.000000" stroke="none" 
	d="
M364.595673,394.626404 
	C339.866791,414.043518 312.304901,426.808838 281.702423,431.566437 
	C227.648041,439.970032 178.393417,427.809082 135.683701,393.046112 
	C98.760918,362.993286 76.587540,324.105194 69.907875,276.821716 
	C59.271328,201.528671 95.195740,128.594727 161.205795,91.416214 
	C192.453568,73.816696 226.206970,65.973427 261.972046,68.253853 
	C306.300110,71.080261 344.867889,87.846985 377.126770,118.485100 
	C409.000122,148.757065 428.142273,185.952057 432.671631,229.542160 
	C439.604950,296.267303 416.323273,351.312775 364.595673,394.626404 
M397.305908,155.216537 
	C384.641388,135.659531 368.761139,119.014717 349.324463,106.357864 
	C299.871796,74.155075 246.824387,67.142693 191.022980,86.909363 
	C149.410919,101.649696 118.204788,129.315506 97.081070,167.892563 
	C76.981781,204.598770 71.360382,244.064041 79.362923,284.942749 
	C87.633690,327.191559 109.053375,362.042114 143.148254,388.555969 
	C184.965912,421.075439 232.557251,432.156982 284.255676,422.662354 
	C322.484528,415.641479 354.938416,396.944031 381.097046,367.735901 
	C411.872192,333.373047 426.458466,292.952484 425.800812,247.154434 
	C425.326843,214.143600 415.875092,183.557190 397.305908,155.216537 
z"/>
<path fill="#93cdb0" opacity="1.000000" stroke="none" 
	d="
M397.507141,155.518005 
	C415.875092,183.557190 425.326843,214.143600 425.800812,247.154434 
	C426.458466,292.952484 411.872192,333.373047 381.097046,367.735901 
	C354.938416,396.944031 322.484528,415.641479 284.255676,422.662354 
	C232.557251,432.156982 184.965912,421.075439 143.148254,388.555969 
	C109.053375,362.042114 87.633690,327.191559 79.362923,284.942749 
	C71.360382,244.064041 76.981781,204.598770 97.081070,167.892563 
	C118.204788,129.315506 149.410919,101.649696 191.022980,86.909363 
	C246.824387,67.142693 299.871796,74.155075 349.324463,106.357864 
	C368.761139,119.014717 384.641388,135.659531 397.507141,155.518005 
M223.985519,417.003174 
	C223.985519,417.003174 223.992996,416.938019 224.239487,417.642426 
	C226.860092,419.847504 229.418884,419.609711 231.192429,416.805573 
	C232.158340,415.278381 233.556808,412.834320 230.002975,411.265808 
	C229.028717,410.560150 228.054459,409.854492 226.991562,408.340546 
	C227.347733,406.858521 227.703918,405.376495 228.776825,403.870819 
	C229.935684,403.220825 231.094528,402.570801 232.253387,401.920807 
	C230.890076,400.039307 229.910904,397.463196 228.070053,396.445129 
	C225.543076,395.047577 223.131607,396.589569 222.434830,399.453308 
	C221.620712,402.799377 221.490845,406.317505 220.607391,409.639526 
	C219.790100,412.712799 220.564072,414.782959 223.441498,416.600830 
	C223.614716,416.781738 223.817795,416.918213 223.985519,417.003174 
M133.897141,347.949921 
	C134.740112,347.702026 135.583069,347.454102 137.092117,347.010315 
	C134.537598,344.148041 132.461945,341.822327 130.907364,340.080444 
	C128.834946,342.921539 127.687935,344.963257 126.095383,346.560883 
	C124.004120,348.658783 121.500069,350.338226 119.291412,352.328461 
	C117.719658,353.744690 116.774803,355.301666 120.008499,356.738708 
	C120.776398,357.066101 121.961830,357.888336 122.248970,357.646027 
	C125.986755,354.491943 129.597168,351.186920 133.897141,347.949921 
M307.794922,409.510559 
	C308.552734,409.760956 309.310577,410.011353 310.068390,410.261749 
	C310.107849,409.220001 310.321838,408.149841 310.157562,407.141296 
	C309.288361,401.805450 304.445953,397.042816 307.879059,391.089478 
	C307.349457,390.786285 306.819885,390.483063 306.044159,389.489990 
	C301.865204,386.780731 299.580017,390.820770 296.220032,392.035126 
	C301.869843,394.292084 302.300873,399.561035 304.208282,403.941620 
	C304.983795,405.722656 306.418182,407.216797 307.794922,409.510559 
M113.194168,310.421600 
	C111.965691,309.536316 110.737221,308.651062 110.148720,308.226990 
	C110.019005,306.121979 109.904327,304.261047 109.789642,302.400116 
	C108.143196,303.171143 106.403252,303.791626 104.869484,304.744110 
	C101.529617,306.818207 98.325684,309.110138 95.006081,311.218384 
	C92.821449,312.605865 91.556923,313.823456 95.138779,315.829285 
	C95.610062,316.218018 96.157700,317.008575 96.541260,316.935699 
	C103.232880,315.664124 109.904396,314.286774 117.278084,313.143311 
	C121.725296,319.126648 125.679466,325.563782 130.700317,331.019196 
	C161.610794,364.604919 199.713440,378.493805 244.899704,370.859406 
	C270.981873,366.452698 293.138153,354.256439 310.476715,333.949554 
	C312.091125,332.058777 313.262268,329.789551 314.639221,327.696014 
	C312.884186,327.605469 311.859833,328.093506 310.819489,328.544800 
	C295.213287,335.314636 279.270111,341.013062 262.098572,341.908905 
	C241.853928,342.965088 222.794662,338.391510 205.110764,328.509430 
	C190.857895,320.544708 178.598389,310.292297 170.792740,296.074677 
	C172.740097,296.074677 174.687439,296.074677 176.929352,296.074677 
	C175.684906,288.353607 174.245560,281.359161 173.516525,274.291473 
	C172.926682,268.573090 171.330414,261.955353 173.424286,257.149933 
	C179.913315,242.257599 187.667542,227.883759 195.528320,213.638428 
	C198.568146,208.129654 203.210968,203.505432 207.262253,198.299942 
	C204.939087,198.174667 202.949997,198.067398 201.243744,197.369370 
	C201.905914,196.419357 202.568100,195.469345 203.140945,194.647491 
	C192.888977,194.647491 183.035294,194.647491 173.032852,194.647491 
	C180.192398,213.920364 174.076370,231.075592 166.359726,247.655411 
	C161.648483,236.740372 156.937241,225.825348 152.707138,214.394073 
	C158.568863,190.872452 169.663849,170.546463 188.574783,154.838226 
	C201.890625,143.777542 216.841003,136.291580 233.878891,133.081528 
	C235.011978,132.868057 236.231934,133.103851 237.358932,132.873520 
	C238.301437,132.680908 239.166962,132.111649 240.406830,131.556931 
	C226.034286,126.714340 212.107376,127.880135 198.179123,130.781937 
	C176.890640,135.217148 158.009064,144.670227 141.745636,159.004425 
	C130.580261,168.845322 121.215828,180.273071 114.095070,194.008362 
	C112.307152,194.132721 110.519234,194.257080 108.608482,194.389984 
	C109.982178,196.584015 111.059967,198.305450 111.530991,200.394608 
	C97.667969,231.519684 97.147339,263.028290 108.942924,294.838898 
	C111.006378,300.403656 113.487480,305.813568 115.154091,311.155396 
	C114.519783,311.140656 113.885475,311.125916 113.194168,310.421600 
M326.344147,399.633545 
	C328.378754,402.531769 330.801514,402.185547 333.160797,400.229645 
	C336.034576,397.847198 335.262207,395.355713 332.598511,392.415131 
	C331.771484,391.592682 330.944489,390.770203 330.117493,389.947754 
	C329.822327,390.182983 329.527161,390.418213 329.231995,390.653442 
	C329.376740,392.310669 329.521454,393.967896 329.685577,395.847137 
	C325.138580,394.139038 322.114777,387.993622 323.660004,384.132538 
	C324.936432,384.550415 326.224823,384.972198 327.513184,385.393951 
	C327.811096,385.044800 328.109009,384.695648 328.406891,384.346466 
	C327.111450,382.920837 326.026886,380.717865 324.459961,380.292725 
	C322.953888,379.884033 320.279419,380.824493 319.355865,382.081421 
	C318.483002,383.269409 318.634247,385.920319 319.361084,387.435638 
	C321.284363,391.445404 323.763123,395.188751 326.344147,399.633545 
M184.916580,387.141449 
	C184.323532,386.103668 183.730499,385.065918 183.041367,383.349396 
	C182.833038,382.212860 182.624710,381.076294 182.416397,379.939758 
	C181.747314,380.555481 181.078232,381.171204 180.409149,381.786926 
	C178.851242,387.014679 177.133377,392.203583 175.847122,397.497345 
	C175.522659,398.832703 176.578079,400.503357 177.285965,402.683197 
	C179.414841,404.766388 181.241196,404.606354 182.912064,402.060699 
	C185.523361,398.082184 188.311218,394.214996 190.780441,390.152435 
	C191.179733,389.495514 190.317841,388.071991 189.930862,386.329346 
	C186.990143,382.703308 186.696228,387.864532 184.916580,387.141449 
M274.969910,404.090363 
	C276.072510,403.085419 277.052277,401.877228 278.304779,401.120361 
	C280.512848,399.786041 280.553589,398.885773 277.885162,397.293854 
	C275.063690,397.098572 272.242218,396.903290 268.966492,396.676575 
	C269.807129,402.735687 270.510803,407.606445 271.151062,412.485535 
	C271.681519,416.527374 273.596191,418.507690 277.786163,416.938507 
	C278.808167,416.555756 279.647369,415.684906 280.570618,415.038452 
	C279.786285,414.378387 279.090790,413.327271 278.202393,413.125549 
	C274.228882,412.223297 273.852264,410.697296 276.834900,407.945251 
	C277.472382,407.357086 277.405243,406.005341 277.662689,405.005341 
	C276.745514,404.944153 275.828308,404.882935 274.969910,404.090363 
M123.854317,330.041046 
	C122.639702,329.776581 121.089249,328.903534 120.269989,329.355591 
	C117.123329,331.091919 114.187065,333.218170 111.216698,335.263458 
	C106.166328,338.740875 106.131332,340.877991 111.144409,345.757019 
	C112.458961,346.131348 114.175941,347.229340 115.021034,346.759460 
	C119.598244,344.214081 123.992126,341.328552 128.330185,338.384857 
	C128.653275,338.165619 128.043625,336.571930 127.726402,335.070984 
	C127.135468,334.381989 126.544533,333.693024 125.899170,332.311279 
	C125.235817,331.772339 124.572464,331.233368 123.854317,330.041046 
M340.117401,391.727844 
	C342.429810,394.958313 345.034454,394.068024 347.214386,391.834106 
	C348.926178,390.079865 349.681885,387.831482 346.277954,385.575439 
	C344.075226,381.878418 341.937744,378.140350 339.647339,374.498474 
	C338.068512,371.988098 335.449738,371.001404 333.383636,373.140717 
	C332.013367,374.559601 330.891571,377.942780 331.658752,379.375885 
	C333.895691,383.554474 337.137543,387.195068 340.117401,391.727844 
M140.970413,352.198517 
	C139.964203,351.942261 138.474930,351.129486 138.027924,351.517487 
	C134.323334,354.733002 130.770706,358.128784 127.259560,361.559540 
	C125.642548,363.139496 125.264412,364.681091 128.058746,366.006439 
	C128.905823,366.597290 129.752899,367.188110 130.732056,368.530762 
	C131.501816,369.076447 132.271561,369.622101 133.095917,370.870880 
	C134.123566,370.998840 135.609314,371.628296 136.105759,371.174805 
	C139.789597,367.809509 143.340012,364.287720 146.734756,360.631622 
	C147.101151,360.237030 146.206711,358.671692 145.869659,357.034851 
	C144.993774,356.414673 144.117889,355.794495 143.143616,354.441803 
	C142.419830,353.910065 141.696060,353.378326 140.970413,352.198517 
M102.656303,331.815002 
	C104.715797,332.082764 106.958702,332.992706 108.792191,332.469055 
	C111.603859,331.666077 114.158562,329.921967 116.777840,328.495575 
	C121.622528,325.857300 121.917999,324.532654 118.358032,319.202515 
	C116.420479,316.066284 113.974152,315.598175 110.814331,317.507782 
	C108.410873,318.960327 105.806183,320.075317 103.337372,321.425293 
	C98.056465,324.312958 97.808716,326.870300 102.656303,331.815002 
M174.902664,378.676910 
	C173.006500,377.147369 171.110336,375.617828 168.808716,373.761261 
	C166.007614,378.348694 163.737396,382.588776 160.961838,386.467224 
	C158.117340,390.442017 158.740967,393.114716 163.441406,395.700195 
	C165.432526,395.845917 168.539734,396.862061 169.222107,395.987091 
	C172.218521,392.144989 174.697388,387.849335 176.911819,383.488556 
	C177.365540,382.595093 175.876953,380.715332 174.902664,378.676910 
M153.096527,387.819183 
	C154.049438,387.865051 155.642715,388.277374 155.858017,387.901123 
	C158.545517,383.204834 161.109390,378.431000 163.463394,373.560303 
	C163.721344,373.026581 162.478577,371.767548 161.866211,370.186401 
	C160.973114,369.124878 160.080032,368.063354 158.797943,366.539459 
	C153.946274,371.926422 149.488892,376.875610 144.700150,382.192719 
	C146.439148,382.351227 148.479019,382.537140 149.897232,382.666382 
	C151.034088,384.288330 152.024948,385.701996 153.096527,387.819183 
M200.977432,391.189087 
	C199.235397,387.454468 196.978302,388.267792 195.275574,390.944885 
	C192.810303,394.820862 190.659073,398.918854 188.681351,403.068665 
	C188.110031,404.267487 188.593689,405.969086 188.593689,408.181793 
	C190.768326,406.589508 191.896240,405.763641 193.029190,404.934082 
	C194.262421,406.725708 195.305481,408.241028 196.330399,410.352936 
	C198.321655,412.865417 199.432999,412.504547 199.982101,409.359863 
	C200.807205,404.634521 201.906311,399.953217 202.590424,395.210114 
	C202.733368,394.219116 201.578369,393.040863 200.977432,391.189087 
M217.913742,396.149384 
	C217.287582,393.672089 216.244308,393.482544 215.035889,395.738190 
	C214.329865,397.056091 213.910782,398.527710 213.306030,400.074982 
	C210.560852,397.870819 214.350204,392.413788 208.456619,392.641815 
	C207.054077,397.805847 205.512299,402.829224 204.428650,407.949585 
	C204.170273,409.170380 205.442123,410.714996 205.972183,412.790222 
	C206.837402,413.013519 208.322510,413.619965 208.461838,413.394562 
	C209.107635,412.349792 209.379974,411.074127 209.940857,410.638092 
	C210.644547,411.792542 211.348236,412.947021 212.115280,414.835724 
	C213.840485,416.774384 215.223877,416.445068 215.884689,414.036072 
	C217.238968,409.098877 218.504517,404.132935 219.588272,399.131531 
	C219.720428,398.521637 218.511932,397.621246 217.913742,396.149384 
M405.711548,314.919647 
	C407.319977,314.443329 408.928436,313.967010 410.536896,313.490723 
	C409.986145,312.831146 409.435394,312.171539 408.896423,310.828033 
	C406.115601,307.438751 392.941772,302.232574 388.675385,304.115509 
	C390.941284,305.082886 392.611877,305.796112 394.477112,306.592438 
	C391.223419,308.049438 389.304535,308.908722 387.385651,309.767975 
	C387.966309,310.583008 388.546967,311.398071 389.181885,312.882874 
	C394.605377,315.478699 400.007385,318.122070 405.485931,320.595947 
	C406.026123,320.839905 407.035065,320.045807 407.826447,319.733521 
	C407.224731,319.140991 406.622986,318.548462 406.003601,317.306274 
	C405.633606,316.542419 405.263580,315.778534 405.711548,314.919647 
M289.084076,398.846497 
	C288.422852,397.699341 287.905121,396.425934 287.047607,395.451477 
	C286.516388,394.847839 285.442047,394.381836 284.662231,394.448334 
	C284.072083,394.498688 282.993286,395.646820 283.101685,396.037231 
	C284.780670,402.085876 286.609558,408.093170 288.468750,414.089905 
	C288.515808,414.241699 289.300903,414.164703 290.226959,414.227081 
	C289.973999,411.773193 289.745453,409.556244 289.488800,407.066406 
	C291.611725,409.039764 293.322266,410.629791 295.009338,412.918121 
	C295.745941,413.510742 296.482544,414.103363 297.219147,414.696014 
	C297.694672,414.097321 298.691650,413.344879 298.567261,412.923065 
	C296.791260,406.900299 294.863739,400.922211 292.748718,394.253510 
	C291.817047,394.440216 290.143646,394.499969 290.086090,394.836334 
	C289.871826,396.087830 290.188629,397.430206 289.922913,399.054260 
	C289.922913,399.054260 289.536743,399.366394 289.084076,398.846497 
M263.286469,418.907959 
	C265.703552,421.153381 266.927368,420.121857 266.846771,417.328888 
	C266.694214,412.042633 266.285461,406.761169 265.836914,401.490143 
	C265.792999,400.973877 264.731445,400.544189 263.968811,399.290405 
	C262.850189,398.881287 260.808777,398.013062 260.750000,398.131226 
	C259.697479,400.246826 258.885040,402.481873 257.691711,405.533661 
	C256.840790,403.086212 256.475220,401.336395 255.625763,399.866211 
	C255.153168,399.048279 253.845596,398.227081 252.967697,398.280701 
	C252.248718,398.324646 251.039337,399.650574 251.025391,400.425720 
	C250.929764,405.746765 250.960739,411.080841 251.301178,416.388275 
	C251.357178,417.261383 253.108215,418.671875 254.124023,418.715607 
	C257.126251,418.844788 260.152618,418.413574 263.286469,418.907959 
M301.620758,290.369171 
	C286.388550,261.332764 274.390991,231.059311 266.509918,199.182922 
	C266.203918,197.945267 264.249207,197.115234 262.686340,195.430389 
	C261.366638,194.352188 260.029083,192.344635 258.730530,192.369537 
	C254.791443,192.445053 250.873215,193.693527 246.935913,193.752365 
	C243.112503,193.809464 241.820465,196.003357 240.664703,198.942337 
	C237.143387,207.896545 233.747818,216.908844 229.918335,225.731445 
	C221.601395,244.892471 213.099335,263.973999 204.531342,283.024353 
	C203.206772,285.969391 201.132248,288.577148 199.142944,291.759338 
	C201.596756,291.929535 203.386505,292.053680 204.965103,292.824768 
	C204.517227,293.774353 204.069366,294.723938 203.610245,295.697388 
	C213.979263,295.697388 223.962143,295.697388 234.853027,295.697388 
	C232.751236,294.051056 231.360413,292.961639 229.701385,291.295868 
	C228.774139,290.167236 227.846909,289.038605 227.026993,287.111694 
	C226.350082,280.764343 225.541870,274.427094 225.050919,268.065399 
	C224.800583,264.821564 226.564697,263.468109 229.973938,263.539062 
	C239.895782,263.745605 249.823441,263.673096 260.194305,264.427917 
	C260.842224,272.094391 261.791321,279.752716 261.998688,287.431091 
	C262.089233,290.784027 262.691772,292.446594 266.131897,293.039429 
	C266.806183,294.021515 267.467957,295.849609 268.156616,295.859802 
	C279.986328,296.034943 291.819366,295.985687 304.504578,295.985687 
	C303.316742,293.817169 302.555237,292.426971 301.620758,290.369171 
M325.004639,287.995605 
	C325.004639,287.995605 325.018097,287.932617 324.941406,288.635681 
	C333.659180,295.962738 343.996979,298.595459 355.045654,298.216156 
	C366.888062,297.809540 378.348602,292.357117 391.313354,296.187592 
	C390.101562,287.801941 389.018738,280.308624 387.819794,272.011902 
	C386.595398,273.955841 385.903229,275.054810 385.051819,275.341187 
	C384.760345,273.387085 384.468842,271.432953 383.981720,268.167297 
	C382.517639,270.596832 381.847870,271.701599 381.184509,272.810181 
	C375.993683,281.484772 368.584747,287.283936 358.730469,289.662750 
	C349.623688,291.861145 340.111847,287.943878 337.031830,280.157349 
	C336.630341,278.219757 336.284943,276.268555 335.818604,274.346710 
	C331.332642,255.859268 331.745117,237.709549 340.199890,220.343002 
	C347.627441,205.086441 355.638275,200.670258 371.990448,202.014236 
	C371.990448,202.014236 371.971008,201.929962 372.169006,202.393112 
	C372.436035,202.595245 372.703094,202.797379 373.630188,203.222107 
	C376.948090,210.503784 380.265961,217.785461 383.490753,224.862839 
	C383.611115,224.528961 383.923065,223.663406 384.722260,223.373154 
	C385.310486,225.823425 385.898682,228.273697 386.676605,231.514236 
	C388.238647,220.055450 389.689270,209.414108 391.157349,198.644623 
	C389.686523,198.801163 388.380127,198.940216 387.038788,198.207977 
	C387.391541,195.405167 385.869446,195.120255 383.466522,194.965591 
	C377.044891,194.552246 370.594940,194.063889 364.254822,193.011505 
	C352.464996,191.054565 341.053314,191.751419 330.191528,196.959991 
	C310.522552,206.391891 298.445984,228.168457 301.183563,249.858658 
	C303.125275,265.243103 310.514099,277.622955 323.324036,287.136292 
	C323.904327,287.415161 324.484619,287.694000 325.004639,287.995605 
M394.577820,320.897552 
	C392.656189,319.906769 390.716125,318.949799 388.817413,317.916962 
	C386.195007,316.490479 384.059326,316.905243 382.351593,319.414703 
	C380.635315,321.936646 380.909943,324.214996 383.455292,325.851227 
	C388.129913,328.856171 392.923187,331.676544 397.638733,334.556580 
	C402.859222,326.731293 402.609558,325.451996 395.675507,321.456970 
	C395.531311,321.373901 395.385773,321.293213 394.577820,320.897552 
M354.475586,383.420105 
	C355.346283,380.527039 354.337036,375.185364 360.582703,379.610535 
	C360.582703,378.034363 360.974548,376.722809 360.521606,376.284637 
	C356.373077,372.271545 352.118866,368.363159 347.767853,364.570587 
	C347.284729,364.149506 345.523834,364.307892 345.198303,364.779419 
	C344.548309,365.720886 343.846069,367.432678 344.279205,368.185730 
	C347.291046,373.422089 350.588715,378.494080 354.475586,383.420105 
M237.402908,418.094177 
	C238.329254,418.397797 239.283920,419.015228 240.175629,418.934753 
	C241.685089,418.798615 243.154755,418.221436 244.641159,417.829651 
	C243.728409,416.812500 242.406845,415.931915 242.009613,414.742615 
	C241.545929,413.354279 241.337326,410.673523 241.976181,410.328735 
	C245.089355,408.648468 244.377060,407.440979 242.182922,405.655701 
	C241.477997,405.082153 241.370407,403.774414 241.435486,403.940460 
	C243.319305,401.946960 244.547363,400.647400 245.775436,399.347839 
	C243.117828,398.767181 240.460236,398.186523 237.452698,397.529388 
	C236.935669,403.827698 236.457520,409.058990 236.115723,414.299194 
	C236.044281,415.394592 236.476013,416.522827 237.402908,418.094177 
M369.039520,344.072205 
	C374.799377,346.568604 380.559204,349.065002 386.319061,351.561401 
	C386.450317,351.412659 386.581543,351.263916 386.712799,351.115143 
	C382.080505,346.395966 377.448242,341.676788 371.942230,336.067505 
	C370.912140,338.301636 369.611603,341.122253 369.039520,344.072205 
M371.531952,369.733704 
	C371.531952,368.315125 371.531952,366.896576 371.531952,364.869598 
	C369.232544,366.281189 367.900543,367.098907 366.704193,367.833374 
	C361.900421,364.513733 359.325500,358.951752 353.433899,357.540497 
	C357.236298,362.690765 361.486145,367.363281 366.133087,371.600250 
	C366.814484,372.221527 369.384399,370.771606 371.531952,369.733704 
M382.501312,332.017609 
	C381.806702,331.569916 381.165619,330.947601 380.405243,330.714355 
	C379.181641,330.339050 377.879272,330.220520 376.610168,329.993469 
	C377.254425,331.087921 377.654083,332.494598 378.584656,333.223541 
	C382.948212,336.641632 387.457794,339.873260 391.915222,343.171509 
	C392.457306,342.821136 392.999390,342.470764 393.541473,342.120422 
	C392.987030,340.753693 392.811890,338.903778 391.805054,338.113342 
	C389.088898,335.981171 386.018372,334.300415 382.501312,332.017609 
M367.415863,354.046539 
	C370.664551,356.957397 373.913269,359.868225 377.161987,362.779083 
	C377.596466,362.479218 378.030914,362.179352 378.465393,361.879517 
	C378.090027,360.841461 378.005310,359.499603 377.290802,358.816101 
	C373.445435,355.137512 369.481476,351.578491 365.450165,348.103851 
	C364.913940,347.641632 363.761566,347.894257 362.894531,347.815857 
	C363.066803,348.786804 362.943573,349.986084 363.477722,350.677460 
	C364.374207,351.837860 365.689178,352.674957 367.415863,354.046539 
z"/>
<path fill="#DBE8D9" opacity="1.000000" stroke="none" 
	d="
M115.775696,311.294983 
	C113.487480,305.813568 111.006378,300.403656 108.942924,294.838898 
	C97.147339,263.028290 97.667969,231.519684 112.159714,200.258972 
	C113.559914,200.960205 114.508316,201.692139 115.076309,202.649719 
	C123.274849,216.471603 131.672043,230.184814 139.485001,244.222733 
	C143.920578,252.192368 147.584244,260.669159 145.974487,270.270538 
	C144.806503,277.236938 143.535416,284.186066 142.260818,291.423859 
	C143.829605,291.772247 145.242111,292.085938 146.619186,292.806824 
	C145.481873,296.078430 147.301239,296.032837 149.286407,296.037750 
	C156.160965,296.054779 163.035324,296.145111 169.909760,296.207520 
	C178.598389,310.292297 190.857895,320.544708 205.110764,328.509430 
	C222.794662,338.391510 241.853928,342.965088 262.098572,341.908905 
	C279.270111,341.013062 295.213287,335.314636 310.819489,328.544800 
	C311.859833,328.093506 312.884186,327.605469 314.639221,327.696014 
	C313.262268,329.789551 312.091125,332.058777 310.476715,333.949554 
	C293.138153,354.256439 270.981873,366.452698 244.899704,370.859406 
	C199.713440,378.493805 161.610794,364.604919 130.700317,331.019196 
	C125.679466,325.563782 121.725296,319.126648 116.946793,312.789734 
	C116.335556,312.055756 116.055618,311.675354 115.775696,311.294983 
z"/>
<path fill="#F0E8E1" opacity="1.000000" stroke="none" 
	d="
M266.204712,292.197205 
	C262.691772,292.446594 262.089233,290.784027 261.998688,287.431091 
	C261.791321,279.752716 260.842224,272.094391 260.070435,263.667908 
	C260.376770,259.415802 257.938599,259.802032 255.751404,259.765961 
	C245.439438,259.595978 235.127335,259.298584 224.816879,259.352509 
	C223.587555,259.358887 221.482727,261.084290 221.284378,262.265015 
	C219.732346,271.503967 220.036697,280.469330 226.919662,287.909973 
	C227.846909,289.038605 228.774139,290.167236 229.370483,291.641846 
	C221.085129,292.051147 213.130707,292.114502 205.176270,292.177856 
	C203.386505,292.053680 201.596756,291.929535 199.142944,291.759338 
	C201.132248,288.577148 203.206772,285.969391 204.531342,283.024353 
	C213.099335,263.973999 221.601395,244.892471 229.918335,225.731445 
	C233.747818,216.908844 237.143387,207.896545 240.664703,198.942337 
	C241.820465,196.003357 243.112503,193.809464 246.935913,193.752365 
	C250.873215,193.693527 254.791443,192.445053 258.730530,192.369537 
	C260.029083,192.344635 261.366638,194.352188 262.815979,196.165283 
	C265.281830,205.201675 267.279663,213.616699 270.018158,221.783325 
	C278.059113,245.762817 287.274353,269.256927 300.102112,291.396606 
	C288.621613,291.906464 277.413177,292.051849 266.204712,292.197205 
M242.020752,216.307968 
	C241.233841,215.450943 240.446945,214.593918 239.237259,213.276428 
	C235.126022,223.582657 231.270355,233.060135 227.574905,242.599670 
	C225.973648,246.733231 224.702560,250.994675 223.083008,255.785141 
	C224.988800,255.785141 226.401688,255.785141 228.768280,255.902939 
	C238.364410,255.902939 247.960556,255.902939 258.179688,255.902939 
	C254.496292,241.742233 249.335251,228.934860 242.020752,216.307968 
z"/>
<path fill="#F2E9E1" opacity="1.000000" stroke="none" 
	d="
M384.235046,222.797867 
	C383.923065,223.663406 383.611115,224.528961 383.490753,224.862839 
	C380.265961,217.785461 376.948090,210.503784 373.196472,202.881302 
	C372.498871,202.336975 372.234924,202.133469 371.971008,201.929962 
	C371.971008,201.929962 371.990448,202.014236 371.841248,201.717224 
	C364.078186,195.528580 356.346680,194.899368 349.008484,201.016113 
	C344.283966,204.954239 340.043030,209.981964 337.000885,215.327011 
	C329.802582,227.974457 328.229858,241.970947 329.566803,256.306122 
	C330.378571,265.010101 331.315582,273.729462 337.004425,280.987854 
	C340.111847,287.943878 349.623688,291.861145 358.730469,289.662750 
	C368.584747,287.283936 375.993683,281.484772 381.184509,272.810181 
	C381.847870,271.701599 382.517639,270.596832 383.981720,268.167297 
	C384.468842,271.432953 384.760345,273.387085 385.102112,276.157928 
	C385.825104,281.649506 386.497803,286.324341 387.279877,291.759064 
	C377.923615,289.437531 369.550385,290.801544 361.245667,293.463348 
	C359.246857,294.104034 356.973114,293.888672 354.825470,294.062897 
	C344.293854,294.917358 334.484131,292.260193 325.018097,287.932617 
	C325.018097,287.932617 325.004639,287.995605 324.984131,287.753662 
	C324.426727,287.197540 323.889832,286.883362 323.352905,286.569153 
	C310.514099,277.622955 303.125275,265.243103 301.183563,249.858658 
	C298.445984,228.168457 310.522552,206.391891 330.191528,196.959991 
	C341.053314,191.751419 352.464996,191.054565 364.254822,193.011505 
	C370.594940,194.063889 377.044891,194.552246 383.466522,194.965591 
	C385.869446,195.120255 387.391541,195.405167 386.914001,199.007874 
	C385.937836,207.471146 385.086456,215.134506 384.235046,222.797867 
z"/>
<path fill="#F2E9E2" opacity="1.000000" stroke="none" 
	d="
M146.654633,292.399597 
	C145.242111,292.085938 143.829605,291.772247 142.260818,291.423859 
	C143.535416,284.186066 144.806503,277.236938 145.974487,270.270538 
	C147.584244,260.669159 143.920578,252.192368 139.485001,244.222733 
	C131.672043,230.184814 123.274849,216.471603 115.076309,202.649719 
	C114.508316,201.692139 113.559914,200.960205 112.463089,200.075104 
	C111.059967,198.305450 109.982178,196.584015 108.608482,194.389984 
	C110.519234,194.257080 112.307152,194.132721 114.971436,193.995422 
	C124.404854,193.989822 132.966095,194.154587 141.516937,193.927612 
	C144.976639,193.835770 146.357071,195.097000 146.213318,198.787933 
	C147.507965,217.611237 156.300629,233.195053 165.074844,248.771606 
	C165.124680,248.860077 166.257278,248.338623 166.884247,248.101990 
	C174.076370,231.075592 180.192398,213.920364 173.032852,194.647491 
	C183.035294,194.647491 192.888977,194.647491 203.140945,194.647491 
	C202.568100,195.469345 201.905914,196.419357 200.808350,197.822815 
	C195.967682,204.071182 190.766479,209.434174 187.334930,215.757523 
	C181.506546,226.497467 177.324722,238.137344 171.401215,248.816788 
	C168.129837,254.714691 168.029190,260.257233 168.903244,266.330261 
	C170.120544,274.788147 171.350845,283.244141 172.676758,292.399597 
	C163.859512,292.399597 155.257080,292.399597 146.654633,292.399597 
z"/>
<path fill="#DBE7D8" opacity="1.000000" stroke="none" 
	d="
M146.222641,198.385071 
	C146.357071,195.097000 144.976639,193.835770 141.516937,193.927612 
	C132.966095,194.154587 124.404854,193.989822 115.368607,193.958252 
	C121.215828,180.273071 130.580261,168.845322 141.745636,159.004425 
	C158.009064,144.670227 176.890640,135.217148 198.179123,130.781937 
	C212.107376,127.880135 226.034286,126.714340 240.406830,131.556931 
	C239.166962,132.111649 238.301437,132.680908 237.358932,132.873520 
	C236.231934,133.103851 235.011978,132.868057 233.878891,133.081528 
	C216.841003,136.291580 201.890625,143.777542 188.574783,154.838226 
	C169.663849,170.546463 158.568863,190.872452 152.367950,214.241730 
	C151.278320,209.006271 150.527863,203.923172 149.710236,198.385071 
	C148.752884,198.385071 147.487762,198.385071 146.222641,198.385071 
z"/>
<path fill="#166E7D" opacity="1.000000" stroke="none" 
	d="
M146.619186,292.806824 
	C155.257080,292.399597 163.859512,292.399597 172.676758,292.399597 
	C171.350845,283.244141 170.120544,274.788147 168.903244,266.330261 
	C168.029190,260.257233 168.129837,254.714691 171.401215,248.816788 
	C177.324722,238.137344 181.506546,226.497467 187.334930,215.757523 
	C190.766479,209.434174 195.967682,204.071182 200.666931,198.118195 
	C202.949997,198.067398 204.939087,198.174667 207.262253,198.299942 
	C203.210968,203.505432 198.568146,208.129654 195.528320,213.638428 
	C187.667542,227.883759 179.913315,242.257599 173.424286,257.149933 
	C171.330414,261.955353 172.926682,268.573090 173.516525,274.291473 
	C174.245560,281.359161 175.684906,288.353607 176.929352,296.074677 
	C174.687439,296.074677 172.740097,296.074677 170.351257,296.141113 
	C163.035324,296.145111 156.160965,296.054779 149.286407,296.037750 
	C147.301239,296.032837 145.481873,296.078430 146.619186,292.806824 
z"/>
<path fill="#186F7E" opacity="1.000000" stroke="none" 
	d="
M337.018127,280.572601 
	C331.315582,273.729462 330.378571,265.010101 329.566803,256.306122 
	C328.229858,241.970947 329.802582,227.974457 337.000885,215.327011 
	C340.043030,209.981964 344.283966,204.954239 349.008484,201.016113 
	C356.346680,194.899368 364.078186,195.528580 371.883850,201.709686 
	C355.638275,200.670258 347.627441,205.086441 340.199890,220.343002 
	C331.745117,237.709549 331.332642,255.859268 335.818604,274.346710 
	C336.284943,276.268555 336.630341,278.219757 337.018127,280.572601 
z"/>
<path fill="#1C727F" opacity="1.000000" stroke="none" 
	d="
M324.979736,288.284149 
	C334.484131,292.260193 344.293854,294.917358 354.825470,294.062897 
	C356.973114,293.888672 359.246857,294.104034 361.245667,293.463348 
	C369.550385,290.801544 377.923615,289.437531 387.279877,291.759064 
	C386.497803,286.324341 385.825104,281.649506 385.181702,276.564209 
	C385.903229,275.054810 386.595398,273.955841 387.819794,272.011902 
	C389.018738,280.308624 390.101562,287.801941 391.313354,296.187592 
	C378.348602,292.357117 366.888062,297.809540 355.045654,298.216156 
	C343.996979,298.595459 333.659180,295.962738 324.979736,288.284149 
z"/>
<path fill="#217582" opacity="1.000000" stroke="none" 
	d="
M300.374115,291.032135 
	C287.274353,269.256927 278.059113,245.762817 270.018158,221.783325 
	C267.279663,213.616699 265.281830,205.201675 263.004150,196.497711 
	C264.249207,197.115234 266.203918,197.945267 266.509918,199.182922 
	C274.390991,231.059311 286.388550,261.332764 301.470947,290.707764 
	C301.005096,291.064941 300.689423,291.060181 300.374115,291.032135 
z"/>
<path fill="#ECEEE7" opacity="1.000000" stroke="none" 
	d="
M263.169525,418.201599 
	C260.152618,418.413574 257.126251,418.844788 254.124023,418.715607 
	C253.108215,418.671875 251.357178,417.261383 251.301178,416.388275 
	C250.960739,411.080841 250.929764,405.746765 251.025391,400.425720 
	C251.039337,399.650574 252.248718,398.324646 252.967697,398.280701 
	C253.845596,398.227081 255.153168,399.048279 255.625763,399.866211 
	C256.475220,401.336395 256.840790,403.086212 257.691711,405.533661 
	C258.885040,402.481873 259.697479,400.246826 260.750000,398.131226 
	C260.808777,398.013062 262.850189,398.881287 264.002319,400.136536 
	C264.259827,405.211853 264.636658,409.441376 264.626221,413.669952 
	C264.622498,415.181702 263.682281,416.691132 263.169525,418.201599 
z"/>
<path fill="#156D7D" opacity="1.000000" stroke="none" 
	d="
M226.973328,287.510834 
	C220.036697,280.469330 219.732346,271.503967 221.284378,262.265015 
	C221.482727,261.084290 223.587555,259.358887 224.816879,259.352509 
	C235.127335,259.298584 245.439438,259.595978 255.751404,259.765961 
	C257.938599,259.802032 260.376770,259.415802 259.847717,263.308960 
	C249.823441,263.673096 239.895782,263.745605 229.973938,263.539062 
	C226.564697,263.468109 224.800583,264.821564 225.050919,268.065399 
	C225.541870,274.427094 226.350082,280.764343 226.973328,287.510834 
z"/>
<path fill="#EDEFE8" opacity="1.000000" stroke="none" 
	d="
M290.306091,398.738464 
	C290.188629,397.430206 289.871826,396.087830 290.086090,394.836334 
	C290.143646,394.499969 291.817047,394.440216 292.850586,394.999207 
	C294.062195,400.309540 295.259644,404.856293 296.199249,409.455719 
	C296.364349,410.263916 295.449127,411.292847 295.032837,412.219849 
	C293.322266,410.629791 291.611725,409.039764 289.488800,407.066406 
	C289.745453,409.556244 289.973999,411.773193 290.226959,414.227081 
	C289.300903,414.164703 288.515808,414.241699 288.468750,414.089905 
	C286.609558,408.093170 284.780670,402.085876 283.101685,396.037231 
	C282.993286,395.646820 284.072083,394.498688 284.662231,394.448334 
	C285.442047,394.381836 286.516388,394.847839 287.047607,395.451477 
	C287.905121,396.425934 288.422852,397.699341 289.385071,399.391174 
	C289.921082,400.431641 290.156097,400.927460 290.391113,401.423309 
	C290.607239,401.344543 290.823395,401.265808 291.039520,401.187073 
	C290.795044,400.370850 290.550568,399.554657 290.306091,398.738464 
z"/>
<path fill="#E9EDE6" opacity="1.000000" stroke="none" 
	d="
M394.909332,321.054504 
	C395.385773,321.293213 395.531311,321.373901 395.675507,321.456970 
	C402.609558,325.451996 402.859222,326.731293 397.638733,334.556580 
	C392.923187,331.676544 388.129913,328.856171 383.455292,325.851227 
	C380.909943,324.214996 380.635315,321.936646 382.351593,319.414703 
	C384.059326,316.905243 386.195007,316.490479 388.817413,317.916962 
	C390.716125,318.949799 392.656189,319.906769 394.909332,321.054504 
M389.816833,322.736816 
	C388.707550,322.579315 387.598267,322.421814 386.488983,322.264313 
	C386.384613,322.686798 386.280212,323.109283 386.175842,323.531738 
	C389.854919,325.213623 392.739380,328.894379 397.364471,328.196381 
	C397.615814,327.666870 397.867157,327.137390 398.118500,326.607910 
	C395.603394,325.314270 393.088287,324.020599 389.816833,322.736816 
z"/>
<path fill="#EDF0E9" opacity="1.000000" stroke="none" 
	d="
M389.127625,312.213104 
	C388.546967,311.398071 387.966309,310.583008 387.385651,309.768005 
	C389.304535,308.908722 391.223419,308.049438 394.477112,306.592438 
	C392.611877,305.796112 390.941284,305.082886 388.675385,304.115509 
	C392.941772,302.232574 406.115601,307.438751 408.595337,311.408539 
	C404.807465,311.989044 401.320648,311.989044 397.833832,311.989044 
	C397.780365,312.223267 397.726898,312.457520 397.673431,312.691742 
	C400.080139,313.466064 402.486877,314.240387 404.893585,315.014679 
	C405.263580,315.778534 405.633606,316.542419 405.781189,317.850647 
	C400.081757,316.334381 394.604675,314.273743 389.127625,312.213104 
z"/>
<path fill="#247683" opacity="1.000000" stroke="none" 
	d="
M146.213318,198.787933 
	C147.487762,198.385071 148.752884,198.385071 149.710236,198.385071 
	C150.527863,203.923172 151.278320,209.006271 152.127380,214.499847 
	C156.937241,225.825348 161.648483,236.740372 166.621979,247.878693 
	C166.257278,248.338623 165.124680,248.860077 165.074844,248.771606 
	C156.300629,233.195053 147.507965,217.611237 146.213318,198.787933 
z"/>
<path fill="#EEF0EA" opacity="1.000000" stroke="none" 
	d="
M206.010162,412.110687 
	C205.442123,410.714996 204.170273,409.170380 204.428650,407.949585 
	C205.512299,402.829224 207.054077,397.805847 208.456619,392.641815 
	C214.350204,392.413788 210.560852,397.870819 213.306030,400.074982 
	C213.910782,398.527710 214.329865,397.056091 215.035889,395.738190 
	C216.244308,393.482544 217.287582,393.672089 217.718399,396.824463 
	C217.018997,399.419952 216.625427,401.377960 215.987335,403.252747 
	C214.748108,406.893677 213.371582,410.487915 212.051941,414.101471 
	C211.348236,412.947021 210.644547,411.792542 209.913086,409.828003 
	C209.885315,406.381378 209.885315,403.744843 209.885315,399.617188 
	C208.304871,404.712555 207.157516,408.411621 206.010162,412.110687 
z"/>
<path fill="#EDEFE8" opacity="1.000000" stroke="none" 
	d="
M354.135132,383.519440 
	C350.588715,378.494080 347.291046,373.422089 344.279205,368.185730 
	C343.846069,367.432678 344.548309,365.720886 345.198303,364.779419 
	C345.523834,364.307892 347.284729,364.149506 347.767853,364.570587 
	C352.118866,368.363159 356.373077,372.271545 360.521606,376.284637 
	C360.974548,376.722809 360.582703,378.034363 360.582703,379.610535 
	C354.337036,375.185364 355.346283,380.527039 354.135132,383.519440 
z"/>
<path fill="#ECEEE7" opacity="1.000000" stroke="none" 
	d="
M196.348526,409.756378 
	C195.305481,408.241028 194.262421,406.725708 193.029190,404.934082 
	C191.896240,405.763641 190.768326,406.589508 188.593689,408.181793 
	C188.593689,405.969086 188.110031,404.267487 188.681351,403.068665 
	C190.659073,398.918854 192.810303,394.820862 195.275574,390.944885 
	C196.978302,388.267792 199.235397,387.454468 200.892273,391.955658 
	C200.481964,394.345978 200.247803,395.994537 199.813858,397.588654 
	C198.706284,401.657501 197.509583,405.702087 196.348526,409.756378 
z"/>
<path fill="#0E6979" opacity="1.000000" stroke="none" 
	d="
M300.102112,291.396606 
	C300.689423,291.060181 301.005096,291.064941 301.557434,291.041565 
	C302.555237,292.426971 303.316742,293.817169 304.504578,295.985687 
	C291.819366,295.985687 279.986328,296.034943 268.156616,295.859802 
	C267.467957,295.849609 266.806183,294.021515 266.168304,292.618317 
	C277.413177,292.051849 288.621613,291.906464 300.102112,291.396606 
z"/>
<path fill="#EBEEE7" opacity="1.000000" stroke="none" 
	d="
M153.015793,387.115662 
	C152.024948,385.701996 151.034088,384.288330 149.897232,382.666382 
	C148.479019,382.537140 146.439148,382.351227 144.700150,382.192719 
	C149.488892,376.875610 153.946274,371.926422 158.797943,366.539459 
	C160.080032,368.063354 160.973114,369.124878 161.657135,370.769348 
	C158.637314,376.606781 155.826553,381.861206 153.015793,387.115662 
z"/>
<path fill="#EDEFE8" opacity="1.000000" stroke="none" 
	d="
M163.079742,395.105164 
	C158.740967,393.114716 158.117340,390.442017 160.961838,386.467224 
	C163.737396,382.588776 166.007614,378.348694 168.808716,373.761261 
	C171.110336,375.617828 173.006500,377.147369 175.051453,379.350464 
	C172.409668,386.055328 171.518585,393.613251 163.079742,395.105164 
M171.166916,379.190033 
	C165.871307,381.255646 165.532303,386.633423 163.410385,390.846924 
	C168.341293,388.741211 170.094055,384.289368 171.166916,379.190033 
z"/>
<path fill="#EBEEE7" opacity="1.000000" stroke="none" 
	d="
M102.315926,331.319092 
	C97.808716,326.870300 98.056465,324.312958 103.337372,321.425293 
	C105.806183,320.075317 108.410873,318.960327 110.814331,317.507782 
	C113.974152,315.598175 116.420479,316.066284 118.589462,319.766785 
	C118.254173,321.825592 118.106812,324.125092 117.048660,324.676361 
	C112.278816,327.161407 107.250862,329.150970 102.315926,331.319092 
M114.830826,320.097137 
	C109.858337,320.924072 105.789871,323.188568 102.516113,326.716827 
	C102.951363,327.406219 103.386620,328.095612 103.821877,328.785004 
	C107.662941,326.046661 111.504005,323.308319 114.830826,320.097137 
z"/>
<path fill="#EDEFE8" opacity="1.000000" stroke="none" 
	d="
M237.039398,417.865051 
	C236.476013,416.522827 236.044281,415.394592 236.115723,414.299194 
	C236.457520,409.058990 236.935669,403.827698 237.452698,397.529388 
	C240.460236,398.186523 243.117828,398.767181 245.775421,399.347839 
	C244.547363,400.647400 243.319305,401.946960 241.435486,403.940460 
	C241.370407,403.774414 241.477997,405.082153 242.182922,405.655701 
	C244.377060,407.440979 245.089355,408.648468 241.976181,410.328735 
	C241.337326,410.673523 241.545929,413.354279 242.009613,414.742615 
	C242.406845,415.931915 243.728409,416.812500 244.641159,417.829651 
	C243.154755,418.221436 241.685089,418.798615 240.175629,418.934753 
	C239.283920,419.015228 238.329254,418.397797 237.039398,417.865051 
z"/>
<path fill="#EEF0EA" opacity="1.000000" stroke="none" 
	d="
M133.041321,370.167786 
	C132.271561,369.622101 131.501816,369.076447 130.902908,367.914337 
	C132.950180,366.012756 134.826599,364.727600 136.703018,363.442413 
	C131.278564,359.289581 130.565857,364.330536 128.116821,365.373901 
	C125.264412,364.681091 125.642548,363.139496 127.259560,361.559540 
	C130.770706,358.128784 134.323334,354.733002 138.027924,351.517487 
	C138.474930,351.129486 139.964203,351.942261 140.702423,352.734955 
	C139.382812,354.315094 138.159042,355.242310 137.344482,356.446350 
	C136.859726,357.162903 137.018417,358.314819 136.887848,359.270996 
	C137.852905,359.079437 139.021042,359.164032 139.738785,358.636200 
	C141.047394,357.673767 142.089005,356.348297 143.242004,355.174316 
	C144.117889,355.794495 144.993774,356.414673 145.612427,357.560913 
	C141.250565,362.113922 137.145950,366.140839 133.041321,370.167786 
z"/>
<path fill="#EEF0EA" opacity="1.000000" stroke="none" 
	d="
M339.985413,391.046600 
	C337.137543,387.195068 333.895691,383.554474 331.658752,379.375885 
	C330.891571,377.942780 332.013367,374.559601 333.383636,373.140717 
	C335.449738,371.001404 338.068512,371.988098 339.647339,374.498474 
	C341.937744,378.140350 344.075226,381.878418 346.372925,386.283295 
	C345.616486,390.436005 343.195862,391.372589 339.985413,391.046600 
M342.371246,387.677155 
	C340.696259,383.563538 339.021240,379.449890 337.028381,374.555542 
	C334.227478,379.063293 336.208160,383.465637 342.371246,387.677155 
z"/>
<path fill="#EDEFE8" opacity="1.000000" stroke="none" 
	d="
M110.984230,345.041748 
	C106.131332,340.877991 106.166328,338.740875 111.216698,335.263458 
	C114.187065,333.218170 117.123329,331.091919 120.269989,329.355591 
	C121.089249,328.903534 122.639702,329.776581 123.579109,330.549866 
	C111.377525,338.919342 111.377525,338.919342 111.707718,342.345734 
	C116.604637,339.134583 121.279121,336.069305 125.953598,333.004028 
	C126.544533,333.693024 127.135468,334.381989 127.481110,335.505402 
	C121.818626,338.973785 116.401428,342.007782 110.984230,345.041748 
z"/>
<path fill="#186F7E" opacity="1.000000" stroke="none" 
	d="
M384.478638,223.085510 
	C385.086456,215.134506 385.937836,207.471146 386.931458,199.443512 
	C388.380127,198.940216 389.686523,198.801163 391.157349,198.644623 
	C389.689270,209.414108 388.238647,220.055450 386.676605,231.514236 
	C385.898682,228.273697 385.310486,225.823425 384.478638,223.085510 
z"/>
<path fill="#EDEFE8" opacity="1.000000" stroke="none" 
	d="
M274.911133,404.821747 
	C275.828308,404.882935 276.745514,404.944153 277.662689,405.005341 
	C277.405243,406.005341 277.472382,407.357086 276.834900,407.945251 
	C273.852264,410.697296 274.228882,412.223297 278.202393,413.125549 
	C279.090790,413.327271 279.786285,414.378387 280.570618,415.038452 
	C279.647369,415.684906 278.808167,416.555756 277.786163,416.938507 
	C273.596191,418.507690 271.681519,416.527374 271.151062,412.485535 
	C270.510803,407.606445 269.807129,402.735687 268.966492,396.676575 
	C272.242218,396.903290 275.063690,397.098572 277.734436,397.967529 
	C276.062134,399.018799 274.540527,399.396393 271.970612,400.034119 
	C273.175079,401.995178 274.043091,403.408447 274.911133,404.821747 
z"/>
<path fill="#EDEFE8" opacity="1.000000" stroke="none" 
	d="
M223.229660,416.299255 
	C220.564072,414.782959 219.790100,412.712799 220.607391,409.639526 
	C221.490845,406.317505 221.620712,402.799377 222.434830,399.453308 
	C223.131607,396.589569 225.543076,395.047577 228.070053,396.445129 
	C229.910904,397.463196 230.890076,400.039307 232.253387,401.920776 
	C231.094528,402.570801 229.935684,403.220825 228.401672,403.491089 
	C227.896774,401.818695 227.767029,400.525970 227.637283,399.233276 
	C226.959702,399.212585 226.282120,399.191925 225.604538,399.171234 
	C225.000000,403.877991 224.395462,408.584747 223.790939,413.291504 
	C224.485779,413.412170 225.180603,413.532806 225.875443,413.653473 
	C226.277039,412.151917 226.678619,410.650391 227.080200,409.148834 
	C228.054459,409.854492 229.028717,410.560150 229.937256,411.974976 
	C227.912018,414.102081 225.952499,415.520050 223.992996,416.938019 
	C223.992996,416.938019 223.985519,417.003174 223.975235,416.805847 
	C223.767792,416.391418 223.522690,416.288330 223.229660,416.299255 
z"/>
<path fill="#EDF0E9" opacity="1.000000" stroke="none" 
	d="
M176.999390,402.019958 
	C176.578079,400.503357 175.522659,398.832703 175.847122,397.497345 
	C177.133377,392.203583 178.851242,387.014679 180.409149,381.786926 
	C181.078232,381.171204 181.747314,380.555481 182.416397,379.939758 
	C182.624710,381.076294 182.833038,382.212860 182.973740,384.049164 
	C181.884949,387.999268 180.863770,391.249634 179.842590,394.499969 
	C180.265518,394.678101 180.688446,394.856232 181.111374,395.034363 
	C182.356445,392.643158 183.601501,390.251984 184.846573,387.860779 
	C186.696228,387.864532 186.990143,382.703308 189.733551,386.890076 
	C186.760696,391.497498 184.112503,395.641663 181.133026,399.532196 
	C180.223373,400.720001 178.402802,401.210236 176.999390,402.019958 
z"/>
<path fill="#EDF0E9" opacity="1.000000" stroke="none" 
	d="
M326.020813,399.038116 
	C323.763123,395.188751 321.284363,391.445404 319.361084,387.435638 
	C318.634247,385.920319 318.483002,383.269409 319.355865,382.081421 
	C320.279419,380.824493 322.953888,379.884033 324.459961,380.292725 
	C326.026886,380.717865 327.111450,382.920837 328.406891,384.346466 
	C328.109009,384.695648 327.811096,385.044800 327.513184,385.393951 
	C326.224823,384.972198 324.936432,384.550415 323.660004,384.132538 
	C322.114777,387.993622 325.138580,394.139038 329.685577,395.847137 
	C329.521454,393.967896 329.376740,392.310669 329.231995,390.653442 
	C329.527161,390.418213 329.822327,390.182983 330.117493,389.947754 
	C330.944489,390.770203 331.771484,391.592682 332.809509,393.095978 
	C333.086884,398.723053 329.869873,399.301025 326.020813,399.038116 
z"/>
<path fill="#0E6979" opacity="1.000000" stroke="none" 
	d="
M205.070679,292.501312 
	C213.130707,292.114502 221.085129,292.051147 229.504578,291.929993 
	C231.360413,292.961639 232.751236,294.051056 234.853027,295.697388 
	C223.962143,295.697388 213.979263,295.697388 203.610245,295.697388 
	C204.069366,294.723938 204.517227,293.774353 205.070679,292.501312 
z"/>
<path fill="#EBEEE7" opacity="1.000000" stroke="none" 
	d="
M95.035095,315.092987 
	C91.556923,313.823456 92.821449,312.605865 95.006081,311.218384 
	C98.325684,309.110138 101.529617,306.818207 104.869484,304.744110 
	C106.403252,303.791626 108.143196,303.171143 109.789642,302.400146 
	C109.904327,304.261047 110.019005,306.121979 110.148720,308.226990 
	C110.737221,308.651062 111.965691,309.536316 112.821564,310.910034 
	C106.644341,312.629944 100.839714,313.861481 95.035095,315.092987 
z"/>
<path fill="#EEF0EA" opacity="1.000000" stroke="none" 
	d="
M368.675293,344.007568 
	C369.611603,341.122253 370.912140,338.301636 371.942230,336.067505 
	C377.448242,341.676788 382.080505,346.395966 386.712799,351.115143 
	C386.581543,351.263916 386.450317,351.412659 386.319061,351.561401 
	C380.559204,349.065002 374.799377,346.568604 368.675293,344.007568 
z"/>
<path fill="#EDEFE8" opacity="1.000000" stroke="none" 
	d="
M307.552795,408.841461 
	C306.418182,407.216797 304.983795,405.722656 304.208282,403.941620 
	C302.300873,399.561035 301.869843,394.292084 296.220032,392.035126 
	C299.580017,390.820770 301.865204,386.780731 305.909424,390.111572 
	C305.336029,392.199493 304.273560,393.814209 304.580231,395.103302 
	C305.376282,398.449860 306.912079,401.613983 307.858337,404.934753 
	C308.193909,406.112366 307.679291,407.532196 307.552795,408.841461 
z"/>
<path fill="#EDEFE8" opacity="1.000000" stroke="none" 
	d="
M119.918755,356.036926 
	C116.774803,355.301666 117.719658,353.744690 119.291412,352.328461 
	C121.500069,350.338226 124.004120,348.658783 126.095383,346.560883 
	C127.687935,344.963257 128.834946,342.921539 130.907364,340.080444 
	C132.461945,341.822327 134.537598,344.148041 137.092117,347.010315 
	C135.583069,347.454102 134.740112,347.702026 133.448029,347.643677 
	C131.976074,347.499084 130.699615,347.327148 129.973557,347.879181 
	C126.539528,350.489990 123.255943,353.298706 119.918755,356.036926 
z"/>
<path fill="#EEF0EA" opacity="1.000000" stroke="none" 
	d="
M371.306213,370.006836 
	C369.384399,370.771606 366.814484,372.221527 366.133087,371.600250 
	C361.486145,367.363281 357.236298,362.690765 353.433899,357.540497 
	C359.325500,358.951752 361.900421,364.513733 366.704193,367.833374 
	C367.900543,367.098907 369.232544,366.281189 371.531952,364.869598 
	C371.531952,366.896576 371.531952,368.315125 371.306213,370.006836 
z"/>
<path fill="#EDEFE8" opacity="1.000000" stroke="none" 
	d="
M382.794922,332.229065 
	C386.018372,334.300415 389.088898,335.981171 391.805054,338.113342 
	C392.811890,338.903778 392.987030,340.753693 393.541473,342.120422 
	C392.999390,342.470764 392.457306,342.821136 391.915222,343.171509 
	C387.457794,339.873260 382.948212,336.641632 378.584656,333.223541 
	C377.654083,332.494598 377.254425,331.087921 376.610168,329.993469 
	C377.879272,330.220520 379.181641,330.339050 380.405243,330.714355 
	C381.165619,330.947601 381.806702,331.569916 382.794922,332.229065 
z"/>
<path fill="#ECEEE7" opacity="1.000000" stroke="none" 
	d="
M367.121979,353.847321 
	C365.689178,352.674957 364.374207,351.837860 363.477722,350.677460 
	C362.943573,349.986084 363.066803,348.786804 362.894531,347.815857 
	C363.761566,347.894257 364.913940,347.641632 365.450165,348.103851 
	C369.481476,351.578491 373.445435,355.137512 377.290802,358.816101 
	C378.005310,359.499603 378.090027,360.841461 378.465393,361.879517 
	C378.030914,362.179352 377.596466,362.479218 377.161987,362.779083 
	C373.913269,359.868225 370.664551,356.957397 367.121979,353.847321 
z"/>
<path fill="#798865" opacity="1.000000" stroke="none" 
	d="
M95.086937,315.461121 
	C100.839714,313.861481 106.644341,312.629944 112.850067,311.254791 
	C113.885475,311.125916 114.519783,311.140656 115.464890,311.225189 
	C116.055618,311.675354 116.335556,312.055756 116.597885,312.684265 
	C109.904396,314.286774 103.232880,315.664124 96.541260,316.935699 
	C96.157700,317.008575 95.610062,316.218018 95.086937,315.461121 
z"/>
<path fill="#768461" opacity="1.000000" stroke="none" 
	d="
M102.486115,331.567047 
	C107.250862,329.150970 112.278816,327.161407 117.048660,324.676361 
	C118.106812,324.125092 118.254173,321.825592 118.872765,319.911926 
	C121.917999,324.532654 121.622528,325.857300 116.777840,328.495575 
	C114.158562,329.921967 111.603859,331.666077 108.792191,332.469055 
	C106.958702,332.992706 104.715797,332.082764 102.486115,331.567047 
z"/>
<path fill="#768461" opacity="1.000000" stroke="none" 
	d="
M163.260574,395.402679 
	C171.518585,393.613251 172.409668,386.055328 175.241943,379.657104 
	C175.876953,380.715332 177.365540,382.595093 176.911819,383.488556 
	C174.697388,387.849335 172.218521,392.144989 169.222107,395.987091 
	C168.539734,396.862061 165.432526,395.845917 163.260574,395.402679 
z"/>
<path fill="#768461" opacity="1.000000" stroke="none" 
	d="
M153.056152,387.467407 
	C155.826553,381.861206 158.637314,376.606781 161.689972,371.098633 
	C162.478577,371.767548 163.721344,373.026581 163.463394,373.560303 
	C161.109390,378.431000 158.545517,383.204834 155.858017,387.901123 
	C155.642715,388.277374 154.049438,387.865051 153.056152,387.467407 
z"/>
<path fill="#798865" opacity="1.000000" stroke="none" 
	d="
M177.142685,402.351562 
	C178.402802,401.210236 180.223373,400.720001 181.133026,399.532196 
	C184.112503,395.641663 186.760696,391.497498 189.787598,387.226837 
	C190.317841,388.071991 191.179733,389.495514 190.780441,390.152435 
	C188.311218,394.214996 185.523361,398.082184 182.912064,402.060699 
	C181.241196,404.606354 179.414841,404.766388 177.142685,402.351562 
z"/>
<path fill="#798865" opacity="1.000000" stroke="none" 
	d="
M111.064316,345.399384 
	C116.401428,342.007782 121.818626,338.973785 127.551712,335.778503 
	C128.043625,336.571930 128.653275,338.165619 128.330185,338.384857 
	C123.992126,341.328552 119.598244,344.214081 115.021034,346.759460 
	C114.175941,347.229340 112.458961,346.131348 111.064316,345.399384 
z"/>
<path fill="#798865" opacity="1.000000" stroke="none" 
	d="
M212.083618,414.468597 
	C213.371582,410.487915 214.748108,406.893677 215.987335,403.252747 
	C216.625427,401.377960 217.018997,399.419952 217.723907,397.177490 
	C218.511932,397.621246 219.720428,398.521637 219.588272,399.131531 
	C218.504517,404.132935 217.238968,409.098877 215.884689,414.036072 
	C215.223877,416.445068 213.840485,416.774384 212.083618,414.468597 
z"/>
<path fill="#71805B" opacity="1.000000" stroke="none" 
	d="
M133.068619,370.519348 
	C137.145950,366.140839 141.250565,362.113922 145.626160,357.868225 
	C146.206711,358.671692 147.101151,360.237030 146.734756,360.631622 
	C143.340012,364.287720 139.789597,367.809509 136.105759,371.174805 
	C135.609314,371.628296 134.123566,370.998840 133.068619,370.519348 
z"/>
<path fill="#7C8E6C" opacity="1.000000" stroke="none" 
	d="
M125.926384,332.657654 
	C121.279121,336.069305 116.604637,339.134583 111.707718,342.345734 
	C111.377525,338.919342 111.377525,338.919342 123.606506,330.876556 
	C124.572464,331.233368 125.235817,331.772339 125.926384,332.657654 
z"/>
<path fill="#798865" opacity="1.000000" stroke="none" 
	d="
M196.339462,410.054657 
	C197.509583,405.702087 198.706284,401.657501 199.813858,397.588654 
	C200.247803,395.994537 200.481964,394.345978 200.914307,392.335571 
	C201.578369,393.040863 202.733368,394.219116 202.590424,395.210114 
	C201.906311,399.953217 200.807205,404.634521 199.982101,409.359863 
	C199.432999,412.504547 198.321655,412.865417 196.339462,410.054657 
z"/>
<path fill="#768461" opacity="1.000000" stroke="none" 
	d="
M119.963623,356.387817 
	C123.255943,353.298706 126.539528,350.489990 129.973557,347.879181 
	C130.699615,347.327148 131.976074,347.499084 133.119293,347.628662 
	C129.597168,351.186920 125.986755,354.491943 122.248970,357.646027 
	C121.961830,357.888336 120.776398,357.066101 119.963623,356.387817 
z"/>
<path fill="#7C8E6C" opacity="1.000000" stroke="none" 
	d="
M307.673859,409.176025 
	C307.679291,407.532196 308.193909,406.112366 307.858337,404.934753 
	C306.912079,401.613983 305.376282,398.449860 304.580231,395.103302 
	C304.273560,393.814209 305.336029,392.199493 306.032501,390.456482 
	C306.819885,390.483063 307.349457,390.786285 307.879059,391.089478 
	C304.445953,397.042816 309.288361,401.805450 310.157562,407.141296 
	C310.321838,408.149841 310.107849,409.220001 310.068390,410.261749 
	C309.310577,410.011353 308.552734,409.760956 307.673859,409.176025 
z"/>
<path fill="#7C8E6C" opacity="1.000000" stroke="none" 
	d="
M263.227997,418.554779 
	C263.682281,416.691132 264.622498,415.181702 264.626221,413.669952 
	C264.636658,409.441376 264.259827,405.211853 264.089050,400.528503 
	C264.731445,400.544189 265.792999,400.973877 265.836914,401.490143 
	C266.285461,406.761169 266.694214,412.042633 266.846771,417.328888 
	C266.927368,420.121857 265.703552,421.153381 263.227997,418.554779 
z"/>
<path fill="#7C8E6C" opacity="1.000000" stroke="none" 
	d="
M227.035889,408.744690 
	C226.678619,410.650391 226.277039,412.151917 225.875443,413.653473 
	C225.180603,413.532806 224.485779,413.412170 223.790939,413.291504 
	C224.395462,408.584747 225.000000,403.877991 225.604538,399.171234 
	C226.282120,399.191925 226.959702,399.212585 227.637283,399.233276 
	C227.767029,400.525970 227.896774,401.818695 228.043304,403.502930 
	C227.703918,405.376495 227.347733,406.858521 227.035889,408.744690 
z"/>
<path fill="#7C8E6C" opacity="1.000000" stroke="none" 
	d="
M389.154755,312.547974 
	C394.604675,314.273743 400.081757,316.334381 405.790039,318.175476 
	C406.622986,318.548462 407.224731,319.140991 407.826447,319.733521 
	C407.035065,320.045807 406.026123,320.839905 405.485931,320.595947 
	C400.007385,318.122070 394.605377,315.478699 389.154755,312.547974 
z"/>
<path fill="#7C8E6C" opacity="1.000000" stroke="none" 
	d="
M295.021057,412.568970 
	C295.449127,411.292847 296.364349,410.263916 296.199249,409.455719 
	C295.259644,404.856293 294.062195,400.309540 292.962585,395.339111 
	C294.863739,400.922211 296.791260,406.900299 298.567261,412.923065 
	C298.691650,413.344879 297.694672,414.097321 297.219147,414.696014 
	C296.482544,414.103363 295.745941,413.510742 295.021057,412.568970 
z"/>
<path fill="#798865" opacity="1.000000" stroke="none" 
	d="
M340.051392,391.387207 
	C343.195862,391.372589 345.616486,390.436005 346.569153,386.621765 
	C349.681885,387.831482 348.926178,390.079865 347.214386,391.834106 
	C345.034454,394.068024 342.429810,394.958313 340.051392,391.387207 
z"/>
<path fill="#798865" opacity="1.000000" stroke="none" 
	d="
M405.302551,314.967163 
	C402.486877,314.240387 400.080139,313.466064 397.673431,312.691742 
	C397.726898,312.457520 397.780365,312.223267 397.833832,311.989044 
	C401.320648,311.989044 404.807465,311.989044 408.589478,311.750488 
	C409.435394,312.171539 409.986145,312.831146 410.536896,313.490723 
	C408.928436,313.967010 407.319977,314.443329 405.302551,314.967163 
z"/>
<path fill="#798865" opacity="1.000000" stroke="none" 
	d="
M205.991180,412.450439 
	C207.157516,408.411621 208.304871,404.712555 209.885315,399.617188 
	C209.885315,403.744843 209.885315,406.381378 209.835693,409.449524 
	C209.379974,411.074127 209.107635,412.349792 208.461838,413.394562 
	C208.322510,413.619965 206.837402,413.013519 205.991180,412.450439 
z"/>
<path fill="#798865" opacity="1.000000" stroke="none" 
	d="
M326.182495,399.335815 
	C329.869873,399.301025 333.086884,398.723053 333.015015,393.380432 
	C335.262207,395.355713 336.034576,397.847198 333.160797,400.229645 
	C330.801514,402.185547 328.378754,402.531769 326.182495,399.335815 
z"/>
<path fill="#7C8E6C" opacity="1.000000" stroke="none" 
	d="
M128.087784,365.690186 
	C130.565857,364.330536 131.278564,359.289581 136.703018,363.442413 
	C134.826599,364.727600 132.950180,366.012756 130.836868,367.538422 
	C129.752899,367.188110 128.905823,366.597290 128.087784,365.690186 
z"/>
<path fill="#7C8E6C" opacity="1.000000" stroke="none" 
	d="
M143.192810,354.808044 
	C142.089005,356.348297 141.047394,357.673767 139.738785,358.636200 
	C139.021042,359.164032 137.852905,359.079437 136.887848,359.270996 
	C137.018417,358.314819 136.859726,357.162903 137.344482,356.446350 
	C138.159042,355.242310 139.382812,354.315094 140.703354,353.058990 
	C141.696060,353.378326 142.419830,353.910065 143.192810,354.808044 
z"/>
<path fill="#768461" opacity="1.000000" stroke="none" 
	d="
M224.116241,417.290222 
	C225.952499,415.520050 227.912018,414.102081 229.963776,412.335388 
	C233.556808,412.834320 232.158340,415.278381 231.192429,416.805573 
	C229.418884,419.609711 226.860092,419.847504 224.116241,417.290222 
z"/>
<path fill="#7C8E6C" opacity="1.000000" stroke="none" 
	d="
M274.940521,404.456055 
	C274.043091,403.408447 273.175079,401.995178 271.970612,400.034119 
	C274.540527,399.396393 276.062134,399.018799 277.827423,398.339111 
	C280.553589,398.885773 280.512848,399.786041 278.304779,401.120361 
	C277.052277,401.877228 276.072510,403.085419 274.940521,404.456055 
z"/>
<path fill="#7C8E6C" opacity="1.000000" stroke="none" 
	d="
M184.881577,387.501099 
	C183.601501,390.251984 182.356445,392.643158 181.111374,395.034363 
	C180.688446,394.856232 180.265518,394.678101 179.842590,394.499969 
	C180.863770,391.249634 181.884949,387.999268 183.021790,384.388550 
	C183.730499,385.065918 184.323532,386.103668 184.881577,387.501099 
z"/>
<path fill="#1C727F" opacity="1.000000" stroke="none" 
	d="
M323.338470,286.852722 
	C323.889832,286.883362 324.426727,287.197540 325.014282,287.742310 
	C324.484619,287.694000 323.904327,287.415161 323.338470,286.852722 
z"/>
<path fill="#186F7E" opacity="1.000000" stroke="none" 
	d="
M372.070007,202.161530 
	C372.234924,202.133469 372.498871,202.336975 372.866455,202.770020 
	C372.703094,202.797379 372.436035,202.595245 372.070007,202.161530 
z"/>
<path fill="#768461" opacity="1.000000" stroke="none" 
	d="
M223.335571,416.450043 
	C223.522690,416.288330 223.767792,416.391418 224.007843,416.809387 
	C223.817795,416.918213 223.614716,416.781738 223.335571,416.450043 
z"/>
<path fill="#93cdb0" opacity="1.000000" stroke="none" 
	d="
M242.222015,216.904846 
	C249.335251,228.934860 254.496292,241.742233 258.179688,255.902939 
	C247.960556,255.902939 238.364410,255.902939 228.367050,255.484711 
	C232.717880,242.345947 237.469940,229.625397 242.222015,216.904846 
z"/>
<path fill="#1F7681" opacity="1.000000" stroke="none" 
	d="
M242.121368,216.606415 
	C237.469940,229.625397 232.717880,242.345947 227.890198,255.425812 
	C226.401688,255.785141 224.988800,255.785141 223.083008,255.785141 
	C224.702560,250.994675 225.973648,246.733231 227.574905,242.599670 
	C231.270355,233.060135 235.126022,223.582657 239.237259,213.276428 
	C240.446945,214.593918 241.233841,215.450943 242.121368,216.606415 
z"/>
<path fill="#93cdb0" opacity="1.000000" stroke="none" 
	d="
M290.114502,398.896362 
	C290.550568,399.554657 290.795044,400.370850 291.039520,401.187073 
	C290.823395,401.265808 290.607239,401.344543 290.391113,401.423309 
	C290.156097,400.927460 289.921082,400.431641 289.611389,399.651123 
	C289.536743,399.366394 289.922913,399.054260 290.114502,398.896362 
z"/>
<path fill="#90BC9F" opacity="1.000000" stroke="none" 
	d="
M390.195007,322.731873 
	C393.088287,324.020599 395.603394,325.314270 398.118500,326.607910 
	C397.867157,327.137390 397.615814,327.666870 397.364471,328.196381 
	C392.739380,328.894379 389.854919,325.213623 386.175842,323.531738 
	C386.280212,323.109283 386.384613,322.686798 386.488983,322.264313 
	C387.598267,322.421814 388.707550,322.579315 390.195007,322.731873 
z"/>
<path fill="#798865" opacity="1.000000" stroke="none" 
	d="
M171.425446,379.453003 
	C170.094055,384.289368 168.341293,388.741211 163.410385,390.846924 
	C165.532303,386.633423 165.871307,381.255646 171.425446,379.453003 
z"/>
<path fill="#798865" opacity="1.000000" stroke="none" 
	d="
M115.087952,320.333557 
	C111.504005,323.308319 107.662941,326.046661 103.821877,328.785004 
	C103.386620,328.095612 102.951363,327.406219 102.516113,326.716827 
	C105.789871,323.188568 109.858337,320.924072 115.087952,320.333557 
z"/>
<path fill="#9CCBB0" opacity="1.000000" stroke="none" 
	d="
M342.018982,387.774048 
	C336.208160,383.465637 334.227478,379.063293 337.028381,374.555542 
	C339.021240,379.449890 340.696259,383.563538 342.018982,387.774048 
z"/>
</svg>